<svg id="Layer_1" data-name="Layer 1" xmlns="http://www.w3.org/2000/svg" viewBox="0 0 512 512"><defs><style>.cls-1{fill:#ff0007;}</style></defs><path class="cls-1" d="M275.46,511.9H235.55c-2.71-2-6-1.4-9-1.76-54.31-6.6-102.34-27.77-142-65.27C14.29,378.33-12,296.63,7.25,201.63,29.93,89.6,132.51,4.59,247,1.21c49.56-1.46,96.14,9.46,138.57,35.15Q488.94,99,509.09,218.65c1,6,.66,12.13,2.81,17.9v40.9c-2.12,4.25-1.6,8.95-2.24,13.44-7.36,51.37-28,96.72-62.63,135.32q-61.45,68.46-152.64,82.88C288.09,510.08,281.6,509.82,275.46,511.9Zm141.37-78.33c63-54.14,100.33-155.12,66-255.35-34.06-99.46-132.68-166.42-238-161C136.42,22.89,46.5,99,22.47,206.41,11.06,257.45,16.93,307.2,38.3,355A234,234,0,0,0,96.07,434c13-68.94,52.5-113.61,118.75-134.82-46.72-28.53-51.75-89-19.9-125.06,30.27-34.29,83.77-37.32,117-6.22,16.68,15.6,25.84,34.93,26.3,57.81.65,31.83-13.61,55.94-40.13,73.41C364.56,320.55,403.92,365.17,416.83,433.57Z"/></svg>